<svg width="50" height="50" viewBox="0 0 50 50" fill="none" xmlns="http://www.w3.org/2000/svg">
<g clip-path="url(#clip0_34_454)">
<path d="M40.5935 23.1854H17.2767V27.485H40.6536V25.6608C40.6536 24.8008 40.6333 23.976 40.5935 23.1854Z" fill="#101828"/>
<path d="M49.9393 31.6399C49.7421 30.9426 49.0984 30.4557 48.3737 30.4557H44.1178H40.6536H9.34648H4.89218H1.62636C0.901751 30.4557 0.257903 30.9427 0.0608329 31.6399C-0.136335 32.3371 0.157317 33.0892 0.774603 33.4686C2.56552 34.5692 5.55273 36.1594 9.61269 37.4848C14.491 39.0773 19.668 39.8847 24.9999 39.8847C30.3318 39.8847 35.5088 39.0772 40.3871 37.4848C44.4472 36.1593 47.4343 34.5693 49.2252 33.4686C49.8428 33.0891 50.1363 32.3371 49.9393 31.6399Z" fill="#101828"/>
<path d="M9.40655 23.1854C9.36681 23.976 9.3465 24.8008 9.3465 25.6608V27.485H14.3062V23.1854H9.40655Z" fill="#101828"/>
<path d="M40.33 20.215C39.7818 16.0778 38.539 13.1759 36.6151 11.5589C35.1694 10.3439 33.3675 9.88273 31.4032 10.2254C29.8743 10.4923 25.9984 11.7135 25.2489 11.9518C25.0853 11.9795 24.9147 11.9795 24.7511 11.9518C24.0015 11.7135 20.1257 10.4923 18.5968 10.2254C16.6324 9.88283 14.8304 10.3439 13.3848 11.5589C11.4609 13.1761 10.2181 16.0778 9.66992 20.215H14.3062V16.6258H17.2767V20.215H40.33V20.215Z" fill="#101828"/>
</g>
<defs>
<clipPath id="clip0_34_454">
<rect width="50" height="50" fill="white"/>
</clipPath>
</defs>
</svg>
