<svg width="80" height="80" viewBox="0 0 80 80" fill="none" xmlns="http://www.w3.org/2000/svg">
<path d="M42.3763 75.2167V71.4954H69.7177L62.3308 18.842L39.9998 0.0306244L17.6691 18.842L10.2822 71.4954H37.6236V75.2167H0V79.9693H80V75.2167H42.3763ZM42.3763 8.24672L57.877 21.3045L59.182 30.6059L42.3764 16.4489V8.24672H42.3763ZM42.3763 22.6633L60.1706 37.6533L61.4756 46.9547L42.3763 30.8656V22.6633ZM42.3763 37.0798L62.4642 54.002L63.7692 63.3036L42.3763 45.282V37.0798ZM42.3763 51.4962L60.4753 66.7428H42.3763V51.4962ZM22.1228 21.3045L37.6236 8.24687V16.4491L20.818 30.6061L22.1228 21.3045ZM37.6236 66.7429H19.5245L37.6236 51.4964V66.7429ZM37.6236 45.2819L16.2306 63.3033L17.5356 54.0017L37.6236 37.0797V45.2819ZM37.6238 30.8653L18.5242 46.9547L19.8294 37.6531L37.6238 22.6631V30.8653Z" fill="#101828"/>
</svg>
