<svg width="80" height="80" viewBox="0 0 80 80" fill="none" xmlns="http://www.w3.org/2000/svg">
<path d="M58.5588 6.45547C57.1486 6.02156 52.993 4.74281 40.712 0.96375L40 0.744687L21.4414 6.45563C20.0313 6.02172 15.8758 4.74312 3.59453 0.963906L0.461719 0V80L21.4411 74.5202L40 79.3677L58.5588 74.5202L79.5383 80V0L58.5588 6.45547ZM74.6969 73.7317L60.9796 70.1488V66.5033H56.1381V70.1488L42.4208 73.7317V53.1497H37.5794V73.7317L23.862 70.1488V52.865H19.0206V70.1488L5.30328 73.7317V6.55516C9.25344 7.77062 15.9042 9.81719 19.0206 10.7763V11.9595H23.862V10.7763L37.5794 6.55531V40.6352H42.4208V6.55531C46.371 7.77078 53.0216 9.81719 56.1381 10.7763V26.2736H60.9796V10.7763L74.6969 6.55516V73.7317Z" fill="#101828"/>
<path d="M21.5333 13.6027C17.3477 13.6027 13.9427 16.9878 13.9427 21.1484C13.9427 24.4678 16.1109 27.2914 19.1127 28.2986V35.9259H23.9541V28.2986C26.9559 27.2916 29.1242 24.468 29.1242 21.1484C29.1241 16.9877 25.7189 13.6027 21.5333 13.6027ZM21.5333 23.8528C20.0173 23.8528 18.7841 22.6395 18.7841 21.1484C18.7841 19.6573 20.0173 18.4441 21.5333 18.4441C23.0494 18.4441 24.2827 19.6573 24.2827 21.1484C24.2827 22.6395 23.0494 23.8528 21.5333 23.8528Z" fill="#101828"/>
<path d="M58.5588 28.2058C53.6598 28.2058 49.6742 32.1661 49.6742 37.0339C49.6742 41.0678 52.4122 44.4759 56.138 45.5261V55.5084H60.9794V45.5261C64.705 44.4759 67.4431 41.0678 67.4431 37.0339C67.4433 32.1661 63.4578 28.2058 58.5588 28.2058ZM58.5588 41.0206C56.3292 41.0206 54.5156 39.2322 54.5156 37.0341C54.5156 34.8358 56.3292 33.0473 58.5588 33.0473C60.7881 33.0473 62.6019 34.8358 62.6019 37.0341C62.6019 39.2322 60.7883 41.0206 58.5588 41.0206Z" fill="#101828"/>
<path d="M23.8617 39.4672H19.0203V41.888H23.8617V39.4672Z" fill="#101828"/>
<path d="M23.8617 45.5189H19.0203V50.3603H23.8617V45.5189Z" fill="#101828"/>
<path d="M44.3444 45.5189H39.2236V50.3603H44.3444V45.5189Z" fill="#101828"/>
<path d="M37.518 45.5189H32.3972V50.3603H37.518V45.5189Z" fill="#101828"/>
<path d="M30.69 45.5189H25.5692V50.3603H30.69V45.5189Z" fill="#101828"/>
<path d="M50.893 45.5189H46.0516V50.3603H50.893V45.5189Z" fill="#101828"/>
<path d="M50.893 51.958H46.0516V56.7517H50.893V51.958Z" fill="#101828"/>
<path d="M50.893 58.3488H46.0516V63.1902H50.893V58.3488Z" fill="#101828"/>
<path d="M55.0889 58.3488H51.942V63.1902H55.0889V58.3488Z" fill="#101828"/>
<path d="M58.5586 58.3488H56.1378V63.1902H58.5586V58.3488Z" fill="#101828"/>
</svg>
