<svg width="50" height="50" viewBox="0 0 50 50" fill="none" xmlns="http://www.w3.org/2000/svg">
<path d="M28.112 4.99844V3.11201C28.112 1.39326 26.7187 0 25 0C23.2812 0 21.888 1.39326 21.888 3.11201V4.99844C22.9027 4.84121 23.9419 4.75918 25 4.75918C26.0581 4.75918 27.0974 4.84121 28.112 4.99844Z" fill="#101828"/>
<path d="M41.3365 13.0646L42.6777 11.7233C43.8931 10.508 43.8931 8.5376 42.6777 7.32227C41.4624 6.10693 39.492 6.10693 38.2767 7.32227L36.9354 8.66348C38.6181 9.89619 40.1038 11.3819 41.3365 13.0646Z" fill="#101828"/>
<path d="M46.888 21.8879H45.0016C45.1588 22.9027 45.2408 23.9419 45.2408 25C45.2408 26.058 45.1588 27.0973 45.0016 28.112H46.888C48.6067 28.112 50 26.7187 50 25C50 23.2812 48.6067 21.8879 46.888 21.8879Z" fill="#101828"/>
<path d="M36.9354 41.3365L38.2767 42.6777C39.492 43.893 41.4624 43.893 42.6777 42.6777C43.8931 41.4624 43.8931 39.492 42.6777 38.2766L41.3365 36.9354C40.1038 38.618 38.6181 40.1038 36.9354 41.3365Z" fill="#101828"/>
<path d="M21.888 45.0016V46.888C21.888 48.6068 23.2812 50 25 50C26.7187 50 28.112 48.6068 28.112 46.888V45.0016C27.0973 45.1588 26.058 45.2408 25 45.2408C23.942 45.2408 22.9026 45.1588 21.888 45.0016Z" fill="#101828"/>
<path d="M8.66348 36.9354L7.32227 38.2766C6.10693 39.492 6.10693 41.4624 7.32227 42.6777C8.5376 43.893 10.508 43.893 11.7233 42.6777L13.0646 41.3365C11.3819 40.1038 9.89619 38.618 8.66348 36.9354Z" fill="#101828"/>
<path d="M4.99844 21.8879H3.11201C1.39326 21.8879 0 23.2812 0 25C0 26.7187 1.39326 28.112 3.11201 28.112H4.99844C4.84121 27.0972 4.75918 26.058 4.75918 25C4.75918 23.9419 4.84121 22.9026 4.99844 21.8879Z" fill="#101828"/>
<path d="M13.0646 8.66348L11.7233 7.32227C10.508 6.10693 8.5376 6.10693 7.32227 7.32227C6.10693 8.5376 6.10693 10.508 7.32227 11.7233L8.66348 13.0646C9.89619 11.3819 11.3819 9.89619 13.0646 8.66348Z" fill="#101828"/>
<path d="M26.4648 19.0452C27.0753 19.1954 27.6506 19.4362 28.1742 19.7542L31.7315 16.1969C30.2304 15.0463 28.428 14.2702 26.4648 14.0099V19.0452Z" fill="#101828"/>
<path d="M30.2458 21.8258C30.5639 22.3494 30.8046 22.9247 30.9548 23.5351H35.9901C35.7299 21.5719 34.9538 19.7695 33.8031 18.2684L30.2458 21.8258Z" fill="#101828"/>
<path d="M30.9548 26.4648C30.8046 27.0753 30.5639 27.6506 30.2458 28.1742L33.8031 31.7315C34.9537 30.2304 35.7298 28.428 35.9901 26.4648H30.9548Z" fill="#101828"/>
<path d="M23.5352 30.9548C22.9247 30.8046 22.3494 30.5639 21.8258 30.2458L18.2685 33.8032C19.7696 34.9538 21.572 35.7298 23.5352 35.9902V30.9548Z" fill="#101828"/>
<path d="M7.68887 25C7.68887 34.5454 15.4546 42.3111 25 42.3111C34.5454 42.3111 42.3111 34.5454 42.3111 25C42.3111 15.4546 34.5454 7.68884 25 7.68884C15.4546 7.68884 7.68887 15.4546 7.68887 25ZM39.0167 25C39.0167 32.7289 32.7288 39.0167 25 39.0167C17.2712 39.0167 10.9833 32.7289 10.9833 25C10.9833 17.2711 17.2711 10.9833 25 10.9833C32.7289 10.9833 39.0167 17.2711 39.0167 25Z" fill="#101828"/>
<path d="M28.1742 30.2458C27.6506 30.5639 27.0753 30.8046 26.4648 30.9548V35.9902C28.428 35.7299 30.2305 34.9539 31.7315 33.8032L28.1742 30.2458Z" fill="#101828"/>
<path d="M25 28.2032C26.7691 28.2032 28.2032 26.7691 28.2032 25C28.2032 23.2309 26.7691 21.7968 25 21.7968C23.2309 21.7968 21.7968 23.2309 21.7968 25C21.7968 26.7691 23.2309 28.2032 25 28.2032Z" fill="#101828"/>
<path d="M19.7542 28.1742C19.4361 27.6506 19.1954 27.0753 19.0452 26.4648H14.0099C14.2701 28.428 15.0462 30.2305 16.1969 31.7315L19.7542 28.1742Z" fill="#101828"/>
<path d="M19.0452 23.5351C19.1954 22.9247 19.4361 22.3494 19.7542 21.8258L16.1969 18.2684C15.0463 19.7696 14.2702 21.5719 14.0099 23.5351H19.0452Z" fill="#101828"/>
<path d="M21.8258 19.7542C22.3494 19.4362 22.9247 19.1954 23.5352 19.0452V14.0099C21.572 14.2701 19.7695 15.0462 18.2685 16.1969L21.8258 19.7542Z" fill="#101828"/>
</svg>
