<svg width="50" height="50" viewBox="0 0 50 50" fill="none" xmlns="http://www.w3.org/2000/svg">
<path d="M24.1808 15.6014L19.1392 21.7894L14.0976 15.6014L11.7226 17.5364L19.1392 26.6395L26.5558 17.5364L24.1808 15.6014Z" fill="#101828"/>
<path d="M43.2466 27.1873H47.9593L41.2196 14.7271H45.5882L35.4837 0.0142578L31.2878 6.1249C28.4092 2.36807 24.012 0 19.139 0C11.3344 0 4.7744 6.04629 3.67567 14.1532C1.24637 16.7541 0.0148315 19.8084 0.0148315 23.2405C0.0148315 30.3702 5.40858 36.2542 12.2963 36.9557V50H26.0308V38.0105H30.3442V50H40.5548V38.0105H49.9851L43.2466 27.1873ZM33.0452 8.97695L35.4838 5.42637L39.7676 11.6636H34.0757H31.2001L33.0452 8.97695ZM32.4202 16.2262L33.231 14.7271H35.1866H37.7364L42.8197 24.1238H38.3082H35.2365H29.6732H28.1486L28.6153 23.262L32.4202 16.2262ZM22.9674 34.8226L20.9822 38.0106H22.9674V46.9366H15.3598V28.4198L10.5817 22.5543L8.20653 24.4894L12.2963 29.5094V33.8707C7.10165 33.1835 3.07831 28.6781 3.07831 23.2404C3.07831 20.4771 4.13524 18.0172 6.21942 15.9289L6.60233 15.546L6.65848 15.0068C7.37118 8.19785 12.7364 3.06348 19.139 3.06348C23.3707 3.06348 27.1582 5.31719 29.4405 8.81465L25.3804 14.7271H29.7489L23.0083 27.1873H23.9713H27.722L27.0705 28.234L26.0309 29.9025L22.9674 34.8226ZM37.4913 46.9365H33.4077V38.0105H37.4913V46.9365ZM31.8801 34.9471H26.4985L27.3246 33.6206L31.3306 27.1873H34.5289H37.766H39.6378L44.4688 34.9471H31.8801Z" fill="#101828"/>
</svg>
